<?xml version="1.0" standalone="no"?><!DOCTYPE svg PUBLIC "-//W3C//DTD SVG 1.1//EN" "http://www.w3.org/Graphics/SVG/1.1/DTD/svg11.dtd"><svg t="1586084404625" class="icon" viewBox="0 0 1024 1024" version="1.1" xmlns="http://www.w3.org/2000/svg" p-id="2155" xmlns:xlink="http://www.w3.org/1999/xlink" width="128" height="128"><defs><style type="text/css"></style></defs><path d="M921.6 17.066667H102.4C54.613333 17.066667 17.066667 54.613333 17.066667 102.4v819.2c0 47.786667 37.546667 85.333333 85.333333 85.333333h819.2c47.786667 0 85.333333-37.546667 85.333333-85.333333V102.4c0-47.786667-37.546667-85.333333-85.333333-85.333333zM972.8 921.6c0 27.306667-23.893333 51.2-51.2 51.2H102.4c-27.306667 0-51.2-23.893333-51.2-51.2V102.4c0-27.306667 23.893333-51.2 51.2-51.2h819.2c27.306667 0 51.2 23.893333 51.2 51.2v819.2z" fill="#515151" p-id="2156"></path><path d="M819.2 631.466667H204.8c-47.786667 0-85.333333 37.546667-85.333333 85.333333v102.4c0 47.786667 37.546667 85.333333 85.333333 85.333333h614.4c47.786667 0 85.333333-37.546667 85.333333-85.333333v-102.4c0-47.786667-37.546667-85.333333-85.333333-85.333333zM320.853333 805.546667c6.826667 6.826667 6.826667 17.066667 0 23.893333-3.413333 3.413333-6.826667 3.413333-13.653333 3.413333s-10.24 0-13.653333-3.413333l-37.546667-37.546667-37.546667 37.546667c-3.413333 3.413333-6.826667 3.413333-13.653333 3.413333s-10.24 0-13.653333-3.413333c-6.826667-6.826667-6.826667-17.066667 0-23.893333l37.546666-37.546667-37.546666-37.546667c-6.826667-6.826667-6.826667-17.066667 0-23.893333s17.066667-6.826667 23.893333 0l37.546667 37.546667 37.546666-37.546667c6.826667-6.826667 17.066667-6.826667 23.893334 0s6.826667 17.066667 0 23.893333l-37.546667 37.546667 44.373333 37.546667z m170.666667 0c6.826667 6.826667 6.826667 17.066667 0 23.893333-3.413333 3.413333-6.826667 3.413333-13.653333 3.413333s-10.24 0-13.653334-3.413333l-37.546666-37.546667-37.546667 37.546667c-3.413333 3.413333-6.826667 3.413333-13.653333 3.413333s-10.24 0-13.653334-3.413333c-6.826667-6.826667-6.826667-17.066667 0-23.893333l37.546667-37.546667-37.546667-37.546667c-6.826667-6.826667-6.826667-17.066667 0-23.893333s17.066667-6.826667 23.893334 0l37.546666 37.546667 37.546667-37.546667c6.826667-6.826667 17.066667-6.826667 23.893333 0s6.826667 17.066667 0 23.893333l-37.546666 37.546667 44.373333 37.546667z m170.666667 0c6.826667 6.826667 6.826667 17.066667 0 23.893333-3.413333 3.413333-6.826667 3.413333-13.653334 3.413333s-10.24 0-13.653333-3.413333l-37.546667-37.546667-37.546666 37.546667c-3.413333 3.413333-6.826667 3.413333-13.653334 3.413333s-10.24 0-13.653333-3.413333c-6.826667-6.826667-6.826667-17.066667 0-23.893333l37.546667-37.546667-37.546667-37.546667c-6.826667-6.826667-6.826667-17.066667 0-23.893333s17.066667-6.826667 23.893333 0l37.546667 37.546667 37.546667-37.546667c6.826667-6.826667 17.066667-6.826667 23.893333 0s6.826667 17.066667 0 23.893333l-37.546667 37.546667 44.373334 37.546667z m170.666666 0c6.826667 6.826667 6.826667 17.066667 0 23.893333-3.413333 3.413333-6.826667 3.413333-13.653333 3.413333s-10.24 0-13.653333-3.413333l-37.546667-37.546667-37.546667 37.546667c-3.413333 3.413333-6.826667 3.413333-13.653333 3.413333s-10.24 0-13.653333-3.413333c-6.826667-6.826667-6.826667-17.066667 0-23.893333l37.546666-37.546667-37.546666-37.546667c-6.826667-6.826667-6.826667-17.066667 0-23.893333s17.066667-6.826667 23.893333 0l37.546667 37.546667 37.546666-37.546667c6.826667-6.826667 17.066667-6.826667 23.893334 0s6.826667 17.066667 0 23.893333l-37.546667 37.546667 44.373333 37.546667zM494.933333 563.2c75.093333 0 143.36-34.133333 187.733334-92.16 34.133333-40.96 51.2-92.16 51.2-146.773333 0-133.12-105.813333-238.933333-238.933334-238.933334s-238.933333 105.813333-238.933333 238.933334c0 54.613333 17.066667 105.813333 51.2 146.773333 44.373333 58.026667 112.64 92.16 187.733333 92.16z m0-443.733333c112.64 0 204.8 92.16 204.8 204.8 0 37.546667-10.24 75.093333-30.72 109.226666l-3.413333-3.413333-6.826667-6.826667-10.24-10.24c-3.413333-3.413333-6.826667-3.413333-6.826666-6.826666-3.413333-3.413333-6.826667-6.826667-13.653334-10.24-3.413333-3.413333-6.826667-3.413333-10.24-6.826667-3.413333-3.413333-6.826667-3.413333-13.653333-6.826667-3.413333 0-6.826667-3.413333-10.24-3.413333-3.413333 0-6.826667-3.413333-13.653333-3.413333-3.413333 0-6.826667-3.413333-10.24-3.413334-3.413333 0-6.826667-3.413333-10.24-3.413333 20.48-20.48 37.546667-47.786667 37.546666-78.506667 0-58.026667-44.373333-102.4-102.4-102.4s-102.4 44.373333-102.4 102.4c0 30.72 13.653333 58.026667 37.546667 78.506667-3.413333 0-6.826667 3.413333-10.24 3.413333-3.413333 0-6.826667 3.413333-10.24 3.413334-3.413333 3.413333-10.24 3.413333-13.653333 6.826666-3.413333 0-6.826667 3.413333-10.24 3.413334-3.413333 3.413333-10.24 3.413333-13.653334 6.826666-3.413333 3.413333-6.826667 3.413333-10.24 6.826667-3.413333 3.413333-6.826667 6.826667-13.653333 10.24-3.413333 3.413333-6.826667 3.413333-6.826667 6.826667l-10.24 10.24-6.826666 6.826666-3.413334 3.413334c-20.48-34.133333-30.72-68.266667-30.72-109.226667 0-116.053333 92.16-208.213333 204.8-208.213333z" fill="#515151" p-id="2157"></path></svg>